<?xml version="1.0" encoding="UTF-8" standalone="no"?>
<!DOCTYPE svg PUBLIC "-//W3C//DTD SVG 1.1//EN"
 "http://www.w3.org/Graphics/SVG/1.1/DTD/svg11.dtd">
<!-- Generated by graphviz version 2.38.0 (20140413.2041)
 -->
<!-- Title: multidee Pages: 1 -->
<svg width="942pt" height="350pt"
 viewBox="0.00 0.00 941.70 349.74" xmlns="http://www.w3.org/2000/svg" xmlns:xlink="http://www.w3.org/1999/xlink">
<g id="graph0" class="graph" transform="scale(1 1) rotate(0) translate(4 345.74)">
<title>multidee</title>
<polygon fill="white" stroke="none" points="-4,4 -4,-345.74 937.701,-345.74 937.701,4 -4,4"/>
<!-- depo0 -->
<g id="node1" class="node"><title>depo0</title>
<ellipse fill="none" stroke="black" cx="159.305" cy="-88.8701" rx="40.1111" ry="26.7407"/>
<text text-anchor="middle" x="159.305" y="-92.6701" font-family="Times,serif" font-size="14.00">Depos</text>
<text text-anchor="middle" x="159.305" y="-77.6701" font-family="Times,serif" font-size="14.00">(initial)</text>
</g>
<!-- drifter -->
<g id="node9" class="node"><title>drifter</title>
<polygon fill="none" stroke="black" points="289.61,-106.87 235.61,-106.87 235.61,-70.8701 289.61,-70.8701 289.61,-106.87"/>
<text text-anchor="middle" x="262.61" y="-85.1701" font-family="Times,serif" font-size="14.00">Drifter</text>
</g>
<!-- depo0&#45;&gt;drifter -->
<g id="edge2" class="edge"><title>depo0&#45;&gt;drifter</title>
<path fill="none" stroke="black" d="M199.762,-88.8701C208.2,-88.8701 217.074,-88.8701 225.383,-88.8701"/>
<polygon fill="black" stroke="black" points="225.53,-92.3702 235.53,-88.8701 225.53,-85.3702 225.53,-92.3702"/>
</g>
<!-- depoD -->
<g id="node2" class="node"><title>depoD</title>
<ellipse fill="none" stroke="black" cx="369.451" cy="-88.8701" rx="43.6818" ry="26.7407"/>
<text text-anchor="middle" x="369.451" y="-92.6701" font-family="Times,serif" font-size="14.00">Depos</text>
<text text-anchor="middle" x="369.451" y="-77.6701" font-family="Times,serif" font-size="14.00">(drifted)</text>
</g>
<!-- fanout -->
<g id="node10" class="node"><title>fanout</title>
<polygon fill="none" stroke="black" points="532.291,-106.87 449.291,-106.87 449.291,-70.8701 532.291,-70.8701 532.291,-106.87"/>
<text text-anchor="middle" x="490.791" y="-85.1701" font-family="Times,serif" font-size="14.00">DepoFanout</text>
</g>
<!-- depoD&#45;&gt;fanout -->
<g id="edge4" class="edge"><title>depoD&#45;&gt;fanout</title>
<path fill="none" stroke="black" d="M413.535,-88.8701C421.795,-88.8701 430.514,-88.8701 438.989,-88.8701"/>
<polygon fill="black" stroke="black" points="439.159,-92.3702 449.159,-88.8701 439.159,-85.3702 439.159,-92.3702"/>
</g>
<!-- frameNom -->
<g id="node3" class="node"><title>frameNom</title>
<ellipse fill="none" stroke="black" cx="740.496" cy="-242.87" rx="50.41" ry="26.7407"/>
<text text-anchor="middle" x="740.496" y="-246.67" font-family="Times,serif" font-size="14.00">Frame</text>
<text text-anchor="middle" x="740.496" y="-231.67" font-family="Times,serif" font-size="14.00">(nominal)</text>
</g>
<!-- out -->
<g id="node14" class="node"><title>out</title>
<polygon fill="none" stroke="black" points="933.701,-188.87 826.701,-188.87 826.701,-152.87 933.701,-152.87 933.701,-188.87"/>
<text text-anchor="middle" x="880.201" y="-167.17" font-family="Times,serif" font-size="14.00">MultiFrameSink</text>
</g>
<!-- frameNom&#45;&gt;out -->
<g id="edge12" class="edge"><title>frameNom&#45;&gt;out</title>
<path fill="none" stroke="black" d="M776.958,-224.328C794.764,-215.018 816.5,-203.653 835.346,-193.8"/>
<polygon fill="black" stroke="black" points="837.095,-196.835 844.335,-189.1 833.852,-190.632 837.095,-196.835"/>
</g>
<!-- frameUVs -->
<g id="node4" class="node"><title>frameUVs</title>
<ellipse fill="none" stroke="black" cx="740.496" cy="-170.87" rx="50.41" ry="26.7407"/>
<text text-anchor="middle" x="740.496" y="-174.67" font-family="Times,serif" font-size="14.00">Frame</text>
<text text-anchor="middle" x="740.496" y="-159.67" font-family="Times,serif" font-size="14.00">(uv&#45;short)</text>
</g>
<!-- frameUVs&#45;&gt;out -->
<g id="edge13" class="edge"><title>frameUVs&#45;&gt;out</title>
<path fill="none" stroke="black" d="M790.822,-170.87C799.142,-170.87 807.877,-170.87 816.483,-170.87"/>
<polygon fill="black" stroke="black" points="816.494,-174.37 826.494,-170.87 816.494,-167.37 816.494,-174.37"/>
</g>
<!-- frameVYs -->
<g id="node5" class="node"><title>frameVYs</title>
<ellipse fill="none" stroke="black" cx="740.496" cy="-98.8701" rx="50.41" ry="26.7407"/>
<text text-anchor="middle" x="740.496" y="-102.67" font-family="Times,serif" font-size="14.00">Frame</text>
<text text-anchor="middle" x="740.496" y="-87.6701" font-family="Times,serif" font-size="14.00">(vy&#45;short)</text>
</g>
<!-- frameVYs&#45;&gt;out -->
<g id="edge14" class="edge"><title>frameVYs&#45;&gt;out</title>
<path fill="none" stroke="black" d="M776.958,-117.412C794.764,-126.722 816.5,-138.087 835.346,-147.94"/>
<polygon fill="black" stroke="black" points="833.852,-151.108 844.335,-152.64 837.095,-144.905 833.852,-151.108"/>
</g>
<!-- frameT -->
<g id="node6" class="node"><title>frameT</title>
<ellipse fill="none" stroke="black" cx="740.496" cy="-26.8701" rx="36.5405" ry="26.7407"/>
<text text-anchor="middle" x="740.496" y="-30.6701" font-family="Times,serif" font-size="14.00">Frame</text>
<text text-anchor="middle" x="740.496" y="-15.6701" font-family="Times,serif" font-size="14.00">(truth)</text>
</g>
<!-- frameT&#45;&gt;out -->
<g id="edge15" class="edge"><title>frameT&#45;&gt;out</title>
<path fill="none" stroke="black" d="M768.26,-44.5743C775.828,-50.0696 783.859,-56.394 790.701,-62.8701 817.394,-88.1385 843.514,-121.362 860.375,-144.253"/>
<polygon fill="black" stroke="black" points="857.651,-146.458 866.366,-152.482 863.31,-142.338 857.651,-146.458"/>
</g>
<!-- frameNoise -->
<g id="node7" class="node"><title>frameNoise</title>
<ellipse fill="none" stroke="black" cx="740.496" cy="-314.87" rx="38.3684" ry="26.7407"/>
<text text-anchor="middle" x="740.496" y="-318.67" font-family="Times,serif" font-size="14.00">Frame</text>
<text text-anchor="middle" x="740.496" y="-303.67" font-family="Times,serif" font-size="14.00">(noise)</text>
</g>
<!-- frameNoise&#45;&gt;out -->
<g id="edge16" class="edge"><title>frameNoise&#45;&gt;out</title>
<path fill="none" stroke="black" d="M768.771,-296.794C776.188,-291.386 784.013,-285.201 790.701,-278.87 817.394,-253.602 843.514,-220.378 860.375,-197.487"/>
<polygon fill="black" stroke="black" points="863.31,-199.402 866.366,-189.258 857.651,-195.283 863.31,-199.402"/>
</g>
<!-- ds -->
<g id="node8" class="node"><title>ds</title>
<polygon fill="none" stroke="black" points="83,-106.87 0,-106.87 0,-70.8701 83,-70.8701 83,-106.87"/>
<text text-anchor="middle" x="41.5" y="-85.1701" font-family="Times,serif" font-size="14.00">DepoSource</text>
</g>
<!-- ds&#45;&gt;depo0 -->
<g id="edge1" class="edge"><title>ds&#45;&gt;depo0</title>
<path fill="none" stroke="black" d="M83.003,-88.8701C91.2569,-88.8701 100.031,-88.8701 108.564,-88.8701"/>
<polygon fill="black" stroke="black" points="108.801,-92.3702 118.801,-88.8701 108.801,-85.3702 108.801,-92.3702"/>
</g>
<!-- drifter&#45;&gt;depoD -->
<g id="edge3" class="edge"><title>drifter&#45;&gt;depoD</title>
<path fill="none" stroke="black" d="M289.795,-88.8701C297.639,-88.8701 306.539,-88.8701 315.461,-88.8701"/>
<polygon fill="black" stroke="black" points="315.488,-92.3702 325.488,-88.8701 315.488,-85.3702 315.488,-92.3702"/>
</g>
<!-- mductor -->
<g id="node11" class="node"><title>mductor</title>
<polygon fill="none" stroke="black" points="653.791,-152.87 568.791,-152.87 568.791,-116.87 653.791,-116.87 653.791,-152.87"/>
<text text-anchor="middle" x="611.291" y="-131.17" font-family="Times,serif" font-size="14.00">MultiDuctor</text>
</g>
<!-- fanout&#45;&gt;mductor -->
<g id="edge5" class="edge"><title>fanout&#45;&gt;mductor</title>
<path fill="none" stroke="black" d="M532.572,-104.701C541.127,-108.022 550.253,-111.564 559.131,-115.01"/>
<polygon fill="black" stroke="black" points="558.041,-118.342 568.63,-118.698 560.574,-111.816 558.041,-118.342"/>
</g>
<!-- ductorT -->
<g id="node12" class="node"><title>ductorT</title>
<polygon fill="none" stroke="black" points="638.291,-71.8701 584.291,-71.8701 584.291,-33.8701 638.291,-33.8701 638.291,-71.8701"/>
<text text-anchor="middle" x="611.291" y="-56.6701" font-family="Times,serif" font-size="14.00">Ductor</text>
<text text-anchor="middle" x="611.291" y="-41.6701" font-family="Times,serif" font-size="14.00">(truth)</text>
</g>
<!-- fanout&#45;&gt;ductorT -->
<g id="edge9" class="edge"><title>fanout&#45;&gt;ductorT</title>
<path fill="none" stroke="black" d="M532.572,-76.4809C546.23,-72.3318 561.342,-67.7407 574.582,-63.7185"/>
<polygon fill="black" stroke="black" points="575.735,-67.0261 584.286,-60.7704 573.7,-60.3284 575.735,-67.0261"/>
</g>
<!-- mductor&#45;&gt;frameNom -->
<g id="edge6" class="edge"><title>mductor&#45;&gt;frameNom</title>
<path fill="none" stroke="black" d="M630.667,-152.946C646.143,-167.894 669.088,-189.422 690.291,-206.87 693.788,-209.747 697.49,-212.668 701.231,-215.538"/>
<polygon fill="black" stroke="black" points="699.325,-218.484 709.42,-221.702 703.535,-212.891 699.325,-218.484"/>
</g>
<!-- mductor&#45;&gt;frameUVs -->
<g id="edge7" class="edge"><title>mductor&#45;&gt;frameUVs</title>
<path fill="none" stroke="black" d="M653.943,-146.658C664.15,-149.547 675.218,-152.679 685.899,-155.702"/>
<polygon fill="black" stroke="black" points="684.988,-159.081 695.564,-158.437 686.895,-152.346 684.988,-159.081"/>
</g>
<!-- mductor&#45;&gt;frameVYs -->
<g id="edge8" class="edge"><title>mductor&#45;&gt;frameVYs</title>
<path fill="none" stroke="black" d="M653.943,-123.082C664.15,-120.194 675.218,-117.061 685.899,-114.039"/>
<polygon fill="black" stroke="black" points="686.895,-117.394 695.564,-111.303 684.988,-110.659 686.895,-117.394"/>
</g>
<!-- ductorT&#45;&gt;frameT -->
<g id="edge10" class="edge"><title>ductorT&#45;&gt;frameT</title>
<path fill="none" stroke="black" d="M638.34,-47.5458C654.606,-44.2212 675.977,-39.853 694.884,-35.9886"/>
<polygon fill="black" stroke="black" points="695.698,-39.3946 704.795,-33.9629 694.296,-32.5364 695.698,-39.3946"/>
</g>
<!-- ns -->
<g id="node13" class="node"><title>ns</title>
<polygon fill="none" stroke="black" points="654.291,-332.87 568.291,-332.87 568.291,-296.87 654.291,-296.87 654.291,-332.87"/>
<text text-anchor="middle" x="611.291" y="-311.17" font-family="Times,serif" font-size="14.00">NoiseSource</text>
</g>
<!-- ns&#45;&gt;frameNoise -->
<g id="edge11" class="edge"><title>ns&#45;&gt;frameNoise</title>
<path fill="none" stroke="black" d="M654.295,-314.87C666.394,-314.87 679.676,-314.87 692.079,-314.87"/>
<polygon fill="black" stroke="black" points="692.245,-318.37 702.245,-314.87 692.245,-311.37 692.245,-318.37"/>
</g>
</g>
</svg>
