<?xml version="1.0" encoding="utf-8" standalone="no"?>
<!DOCTYPE svg PUBLIC "-//W3C//DTD SVG 1.1//EN"
  "http://www.w3.org/Graphics/SVG/1.1/DTD/svg11.dtd">
<!-- Created with matplotlib (http://matplotlib.org/) -->
<svg height="432pt" version="1.1" viewBox="0 0 576 432" width="576pt" xmlns="http://www.w3.org/2000/svg" xmlns:xlink="http://www.w3.org/1999/xlink">
 <defs>
  <style type="text/css">
*{stroke-linecap:butt;stroke-linejoin:round;stroke-miterlimit:100000;}
  </style>
 </defs>
 <g id="figure_1">
  <g id="patch_1">
   <path d="M 0 432 
L 576 432 
L 576 0 
L 0 0 
z
" style="fill:#ffffff;"/>
  </g>
  <g id="axes_1">
   <g id="patch_2">
    <path d="M 72 388.8 
L 518.4 388.8 
L 518.4 43.2 
L 72 43.2 
z
" style="fill:#ffffff;"/>
   </g>
   <g id="line2d_1">
    <path clip-path="url(#p9bc365cefa)" d="M -1 257.142857 
L 2.083441 257.142857 
L 2.083441 257.142857 
L 2.083441 257.142857 
L 6.565387 257.142857 
L 6.565387 257.142857 
L 6.565387 257.142857 
L 11.047333 257.142857 
L 11.047333 257.142857 
L 11.047333 257.142857 
L 15.529278 257.142857 
L 15.529278 257.142857 
L 15.529278 257.142857 
L 20.011224 257.142857 
L 20.011224 257.142857 
L 20.011224 257.142857 
L 24.49317 257.142857 
L 24.49317 257.142857 
L 24.49317 257.142857 
L 28.975116 257.142857 
L 28.975116 257.142857 
L 28.975116 257.142857 
L 33.457061 257.142857 
L 33.457061 257.142857 
L 33.457061 257.142857 
L 37.939007 257.142857 
L 37.939007 257.142857 
L 37.939007 257.142857 
L 42.420953 257.142857 
L 42.420953 257.142857 
L 42.420953 257.142857 
L 46.902898 257.142857 
L 46.902898 257.142857 
L 46.902898 257.142857 
L 51.384844 257.142857 
L 51.384844 257.142857 
L 51.384844 257.142857 
L 55.86679 257.142857 
L 55.86679 257.142857 
L 55.86679 257.142857 
L 60.348736 257.142857 
L 60.348736 253.851429 
L 208.252945 253.851429 
L 208.252945 250.56 
L 266.518239 250.56 
L 266.518239 247.268571 
L 284.446022 247.268571 
L 284.446022 243.977143 
L 297.891859 243.977143 
L 297.891859 240.685714 
L 302.373805 240.685714 
L 302.373805 237.394286 
L 306.855751 237.394286 
L 306.855751 234.102857 
L 311.337696 234.102857 
L 311.337696 227.52 
L 315.819642 227.52 
L 315.819642 224.228571 
L 320.301588 224.228571 
L 320.301588 230.811429 
L 324.783534 230.811429 
L 324.783534 257.142857 
L 329.265479 257.142857 
L 329.265479 293.348571 
L 333.747425 293.348571 
L 333.747425 336.137143 
L 338.229371 336.137143 
L 338.229371 365.76 
L 342.711317 365.76 
L 342.711317 375.634286 
L 347.193262 375.634286 
L 347.193262 365.76 
L 351.675208 365.76 
L 351.675208 349.302857 
L 356.157154 349.302857 
L 356.157154 329.554286 
L 360.639099 329.554286 
L 360.639099 309.805714 
L 365.121045 309.805714 
L 365.121045 293.348571 
L 369.602991 293.348571 
L 369.602991 280.182857 
L 374.084937 280.182857 
L 374.084937 270.308571 
L 378.566882 270.308571 
L 378.566882 263.725714 
L 383.048828 263.725714 
L 383.048828 260.434286 
L 387.530774 260.434286 
L 387.530774 257.142857 
L 517.5072 257.142857 
L 517.5072 257.142857 
" style="fill:none;stroke:#ff0000;stroke-linecap:square;"/>
   </g>
   <g id="line2d_2">
    <path clip-path="url(#p9bc365cefa)" d="M -1 257.142857 
L 2.083441 257.142857 
L 2.083441 257.142857 
L 2.083441 257.142857 
L 6.565387 257.142857 
L 6.565387 257.142857 
L 6.565387 257.142857 
L 11.047333 257.142857 
L 11.047333 257.142857 
L 11.047333 257.142857 
L 15.529278 257.142857 
L 15.529278 257.142857 
L 15.529278 257.142857 
L 20.011224 257.142857 
L 20.011224 257.142857 
L 20.011224 257.142857 
L 24.49317 257.142857 
L 24.49317 257.142857 
L 24.49317 257.142857 
L 28.975116 257.142857 
L 28.975116 257.142857 
L 28.975116 257.142857 
L 33.457061 257.142857 
L 33.457061 257.142857 
L 33.457061 257.142857 
L 37.939007 257.142857 
L 37.939007 257.142857 
L 37.939007 257.142857 
L 42.420953 257.142857 
L 42.420953 257.142857 
L 42.420953 257.142857 
L 46.902898 257.142857 
L 46.902898 257.142857 
L 46.902898 257.142857 
L 51.384844 257.142857 
L 51.384844 257.142857 
L 51.384844 257.142857 
L 55.86679 257.142857 
L 55.86679 257.142857 
L 55.86679 257.142857 
L 60.348736 257.142857 
L 60.348736 257.142857 
L 60.348736 257.142857 
L 64.830681 257.142857 
L 64.830681 257.142857 
L 64.830681 257.142857 
L 69.312627 257.142857 
L 69.312627 257.142857 
L 69.312627 257.142857 
L 73.794573 257.142857 
L 73.794573 257.142857 
L 73.794573 257.142857 
L 78.276519 257.142857 
L 78.276519 257.142857 
L 78.276519 257.142857 
L 82.758464 257.142857 
L 82.758464 257.142857 
L 82.758464 257.142857 
L 87.24041 257.142857 
L 87.24041 257.142857 
L 87.24041 257.142857 
L 91.722356 257.142857 
L 91.722356 257.142857 
L 91.722356 257.142857 
L 96.204302 257.142857 
L 96.204302 257.142857 
L 96.204302 257.142857 
L 100.686247 257.142857 
L 100.686247 257.142857 
L 100.686247 257.142857 
L 105.168193 257.142857 
L 105.168193 257.142857 
L 105.168193 257.142857 
L 109.650139 257.142857 
L 109.650139 257.142857 
L 109.650139 257.142857 
L 114.132084 257.142857 
L 114.132084 257.142857 
L 114.132084 257.142857 
L 118.61403 257.142857 
L 118.61403 257.142857 
L 118.61403 257.142857 
L 123.095976 257.142857 
L 123.095976 257.142857 
L 123.095976 257.142857 
L 127.577922 257.142857 
L 127.577922 257.142857 
L 127.577922 257.142857 
L 132.059867 257.142857 
L 132.059867 257.142857 
L 132.059867 257.142857 
L 136.541813 257.142857 
L 136.541813 257.142857 
L 136.541813 257.142857 
L 141.023759 257.142857 
L 141.023759 257.142857 
L 141.023759 257.142857 
L 145.505705 257.142857 
L 145.505705 257.142857 
L 145.505705 257.142857 
L 149.98765 257.142857 
L 149.98765 257.142857 
L 149.98765 257.142857 
L 154.469596 257.142857 
L 154.469596 257.142857 
L 154.469596 257.142857 
L 158.951542 257.142857 
L 158.951542 257.142857 
L 158.951542 257.142857 
L 163.433487 257.142857 
L 163.433487 257.142857 
L 163.433487 257.142857 
L 167.915433 257.142857 
L 167.915433 257.142857 
L 167.915433 257.142857 
L 172.397379 257.142857 
L 172.397379 257.142857 
L 172.397379 257.142857 
L 176.879325 257.142857 
L 176.879325 257.142857 
L 176.879325 257.142857 
L 181.36127 257.142857 
L 181.36127 257.142857 
L 181.36127 257.142857 
L 185.843216 257.142857 
L 185.843216 257.142857 
L 185.843216 257.142857 
L 190.325162 257.142857 
L 190.325162 257.142857 
L 190.325162 257.142857 
L 194.807108 257.142857 
L 194.807108 257.142857 
L 194.807108 257.142857 
L 199.289053 257.142857 
L 199.289053 257.142857 
L 199.289053 257.142857 
L 203.770999 257.142857 
L 203.770999 257.142857 
L 203.770999 257.142857 
L 208.252945 257.142857 
L 208.252945 257.142857 
L 208.252945 257.142857 
L 212.73489 257.142857 
L 212.73489 257.142857 
L 212.73489 257.142857 
L 217.216836 257.142857 
L 217.216836 257.142857 
L 217.216836 257.142857 
L 221.698782 257.142857 
L 221.698782 257.142857 
L 221.698782 257.142857 
L 226.180728 257.142857 
L 226.180728 257.142857 
L 226.180728 257.142857 
L 230.662673 257.142857 
L 230.662673 257.142857 
L 230.662673 257.142857 
L 235.144619 257.142857 
L 235.144619 257.142857 
L 235.144619 257.142857 
L 239.626565 257.142857 
L 239.626565 257.142857 
L 239.626565 257.142857 
L 244.108511 257.142857 
L 244.108511 257.142857 
L 244.108511 257.142857 
L 248.590456 257.142857 
L 248.590456 257.142857 
L 248.590456 257.142857 
L 253.072402 257.142857 
L 253.072402 257.142857 
L 253.072402 257.142857 
L 257.554348 257.142857 
L 257.554348 257.142857 
L 257.554348 257.142857 
L 262.036293 257.142857 
L 262.036293 257.142857 
L 262.036293 257.142857 
L 266.518239 257.142857 
L 266.518239 257.142857 
L 266.518239 257.142857 
L 271.000185 257.142857 
L 271.000185 257.142857 
L 271.000185 257.142857 
L 275.482131 257.142857 
L 275.482131 257.142857 
L 275.482131 257.142857 
L 279.964076 257.142857 
L 279.964076 257.142857 
L 279.964076 257.142857 
L 284.446022 257.142857 
L 284.446022 257.142857 
L 284.446022 257.142857 
L 288.927968 257.142857 
L 288.927968 257.142857 
L 288.927968 257.142857 
L 293.409914 257.142857 
L 293.409914 257.142857 
L 293.409914 257.142857 
L 297.891859 257.142857 
L 297.891859 257.142857 
L 297.891859 257.142857 
L 302.373805 257.142857 
L 302.373805 257.142857 
L 302.373805 257.142857 
L 306.855751 257.142857 
L 306.855751 253.851429 
L 320.301588 253.851429 
L 320.301588 243.977143 
L 324.783534 243.977143 
L 324.783534 227.52 
L 329.265479 227.52 
L 329.265479 201.188571 
L 333.747425 201.188571 
L 333.747425 178.148571 
L 338.229371 178.148571 
L 338.229371 171.565714 
L 342.711317 171.565714 
L 342.711317 191.314286 
L 347.193262 191.314286 
L 347.193262 230.811429 
L 351.675208 230.811429 
L 351.675208 280.182857 
L 356.157154 280.182857 
L 356.157154 322.971429 
L 360.639099 322.971429 
L 360.639099 349.302857 
L 365.121045 349.302857 
L 365.121045 352.594286 
L 369.602991 352.594286 
L 369.602991 336.137143 
L 374.084937 336.137143 
L 374.084937 313.097143 
L 378.566882 313.097143 
L 378.566882 293.348571 
L 383.048828 293.348571 
L 383.048828 276.891429 
L 387.530774 276.891429 
L 387.530774 267.017143 
L 392.01272 267.017143 
L 392.01272 263.725714 
L 396.494665 263.725714 
L 396.494665 260.434286 
L 405.458557 260.434286 
L 405.458557 257.142857 
L 517.5072 257.142857 
L 517.5072 257.142857 
" style="fill:none;stroke:#0000ff;stroke-linecap:square;"/>
   </g>
   <g id="line2d_3">
    <path clip-path="url(#p9bc365cefa)" d="M -1 257.142857 
L 2.083441 257.142857 
L 2.083441 257.142857 
L 2.083441 257.142857 
L 6.565387 257.142857 
L 6.565387 257.142857 
L 6.565387 257.142857 
L 11.047333 257.142857 
L 11.047333 257.142857 
L 11.047333 257.142857 
L 15.529278 257.142857 
L 15.529278 257.142857 
L 15.529278 257.142857 
L 20.011224 257.142857 
L 20.011224 257.142857 
L 20.011224 257.142857 
L 24.49317 257.142857 
L 24.49317 257.142857 
L 24.49317 257.142857 
L 28.975116 257.142857 
L 28.975116 257.142857 
L 28.975116 257.142857 
L 33.457061 257.142857 
L 33.457061 257.142857 
L 33.457061 257.142857 
L 37.939007 257.142857 
L 37.939007 257.142857 
L 37.939007 257.142857 
L 42.420953 257.142857 
L 42.420953 257.142857 
L 42.420953 257.142857 
L 46.902898 257.142857 
L 46.902898 257.142857 
L 46.902898 257.142857 
L 51.384844 257.142857 
L 51.384844 257.142857 
L 51.384844 257.142857 
L 55.86679 257.142857 
L 55.86679 257.142857 
L 55.86679 257.142857 
L 60.348736 257.142857 
L 60.348736 257.142857 
L 60.348736 257.142857 
L 64.830681 257.142857 
L 64.830681 257.142857 
L 64.830681 257.142857 
L 69.312627 257.142857 
L 69.312627 257.142857 
L 69.312627 257.142857 
L 73.794573 257.142857 
L 73.794573 257.142857 
L 73.794573 257.142857 
L 78.276519 257.142857 
L 78.276519 257.142857 
L 78.276519 257.142857 
L 82.758464 257.142857 
L 82.758464 257.142857 
L 82.758464 257.142857 
L 87.24041 257.142857 
L 87.24041 257.142857 
L 87.24041 257.142857 
L 91.722356 257.142857 
L 91.722356 257.142857 
L 91.722356 257.142857 
L 96.204302 257.142857 
L 96.204302 257.142857 
L 96.204302 257.142857 
L 100.686247 257.142857 
L 100.686247 257.142857 
L 100.686247 257.142857 
L 105.168193 257.142857 
L 105.168193 257.142857 
L 105.168193 257.142857 
L 109.650139 257.142857 
L 109.650139 257.142857 
L 109.650139 257.142857 
L 114.132084 257.142857 
L 114.132084 257.142857 
L 114.132084 257.142857 
L 118.61403 257.142857 
L 118.61403 257.142857 
L 118.61403 257.142857 
L 123.095976 257.142857 
L 123.095976 257.142857 
L 123.095976 257.142857 
L 127.577922 257.142857 
L 127.577922 257.142857 
L 127.577922 257.142857 
L 132.059867 257.142857 
L 132.059867 257.142857 
L 132.059867 257.142857 
L 136.541813 257.142857 
L 136.541813 257.142857 
L 136.541813 257.142857 
L 141.023759 257.142857 
L 141.023759 257.142857 
L 141.023759 257.142857 
L 145.505705 257.142857 
L 145.505705 257.142857 
L 145.505705 257.142857 
L 149.98765 257.142857 
L 149.98765 257.142857 
L 149.98765 257.142857 
L 154.469596 257.142857 
L 154.469596 257.142857 
L 154.469596 257.142857 
L 158.951542 257.142857 
L 158.951542 257.142857 
L 158.951542 257.142857 
L 163.433487 257.142857 
L 163.433487 257.142857 
L 163.433487 257.142857 
L 167.915433 257.142857 
L 167.915433 257.142857 
L 167.915433 257.142857 
L 172.397379 257.142857 
L 172.397379 257.142857 
L 172.397379 257.142857 
L 176.879325 257.142857 
L 176.879325 257.142857 
L 176.879325 257.142857 
L 181.36127 257.142857 
L 181.36127 257.142857 
L 181.36127 257.142857 
L 185.843216 257.142857 
L 185.843216 257.142857 
L 185.843216 257.142857 
L 190.325162 257.142857 
L 190.325162 257.142857 
L 190.325162 257.142857 
L 194.807108 257.142857 
L 194.807108 257.142857 
L 194.807108 257.142857 
L 199.289053 257.142857 
L 199.289053 257.142857 
L 199.289053 257.142857 
L 203.770999 257.142857 
L 203.770999 257.142857 
L 203.770999 257.142857 
L 208.252945 257.142857 
L 208.252945 257.142857 
L 208.252945 257.142857 
L 212.73489 257.142857 
L 212.73489 257.142857 
L 212.73489 257.142857 
L 217.216836 257.142857 
L 217.216836 257.142857 
L 217.216836 257.142857 
L 221.698782 257.142857 
L 221.698782 257.142857 
L 221.698782 257.142857 
L 226.180728 257.142857 
L 226.180728 257.142857 
L 226.180728 257.142857 
L 230.662673 257.142857 
L 230.662673 257.142857 
L 230.662673 257.142857 
L 235.144619 257.142857 
L 235.144619 257.142857 
L 235.144619 257.142857 
L 239.626565 257.142857 
L 239.626565 257.142857 
L 239.626565 257.142857 
L 244.108511 257.142857 
L 244.108511 257.142857 
L 244.108511 257.142857 
L 248.590456 257.142857 
L 248.590456 257.142857 
L 248.590456 257.142857 
L 253.072402 257.142857 
L 253.072402 257.142857 
L 253.072402 257.142857 
L 257.554348 257.142857 
L 257.554348 257.142857 
L 257.554348 257.142857 
L 262.036293 257.142857 
L 262.036293 257.142857 
L 262.036293 257.142857 
L 266.518239 257.142857 
L 266.518239 257.142857 
L 266.518239 257.142857 
L 271.000185 257.142857 
L 271.000185 257.142857 
L 271.000185 257.142857 
L 275.482131 257.142857 
L 275.482131 257.142857 
L 275.482131 257.142857 
L 279.964076 257.142857 
L 279.964076 257.142857 
L 279.964076 257.142857 
L 284.446022 257.142857 
L 284.446022 257.142857 
L 284.446022 257.142857 
L 288.927968 257.142857 
L 288.927968 257.142857 
L 288.927968 257.142857 
L 293.409914 257.142857 
L 293.409914 257.142857 
L 293.409914 257.142857 
L 297.891859 257.142857 
L 297.891859 257.142857 
L 297.891859 257.142857 
L 302.373805 257.142857 
L 302.373805 257.142857 
L 302.373805 257.142857 
L 306.855751 257.142857 
L 306.855751 257.142857 
L 306.855751 257.142857 
L 311.337696 257.142857 
L 311.337696 257.142857 
L 311.337696 257.142857 
L 315.819642 257.142857 
L 315.819642 257.142857 
L 315.819642 257.142857 
L 320.301588 257.142857 
L 320.301588 257.142857 
L 320.301588 257.142857 
L 324.783534 257.142857 
L 324.783534 253.851429 
L 329.265479 253.851429 
L 329.265479 247.268571 
L 333.747425 247.268571 
L 333.747425 240.685714 
L 338.229371 240.685714 
L 338.229371 227.52 
L 342.711317 227.52 
L 342.711317 204.48 
L 347.193262 204.48 
L 347.193262 174.857143 
L 351.675208 174.857143 
L 351.675208 138.651429 
L 356.157154 138.651429 
L 356.157154 95.862857 
L 360.639099 95.862857 
L 360.639099 66.24 
L 365.121045 66.24 
L 365.121045 59.657143 
L 369.602991 59.657143 
L 369.602991 85.988571 
L 374.084937 85.988571 
L 374.084937 125.485714 
L 378.566882 125.485714 
L 378.566882 171.565714 
L 383.048828 171.565714 
L 383.048828 204.48 
L 387.530774 204.48 
L 387.530774 227.52 
L 392.01272 227.52 
L 392.01272 237.394286 
L 396.494665 237.394286 
L 396.494665 240.685714 
L 400.976611 240.685714 
L 400.976611 243.977143 
L 405.458557 243.977143 
L 405.458557 247.268571 
L 409.940503 247.268571 
L 409.940503 250.56 
L 414.422448 250.56 
L 414.422448 253.851429 
L 418.904394 253.851429 
L 418.904394 257.142857 
L 517.5072 257.142857 
L 517.5072 257.142857 
" style="fill:none;stroke:#000000;stroke-linecap:square;"/>
   </g>
   <g id="patch_3">
    <path d="M 72 43.2 
L 518.4 43.2 
" style="fill:none;stroke:#000000;stroke-linecap:square;stroke-linejoin:miter;"/>
   </g>
   <g id="patch_4">
    <path d="M 518.4 388.8 
L 518.4 43.2 
" style="fill:none;stroke:#000000;stroke-linecap:square;stroke-linejoin:miter;"/>
   </g>
   <g id="patch_5">
    <path d="M 72 388.8 
L 518.4 388.8 
" style="fill:none;stroke:#000000;stroke-linecap:square;stroke-linejoin:miter;"/>
   </g>
   <g id="patch_6">
    <path d="M 72 388.8 
L 72 43.2 
" style="fill:none;stroke:#000000;stroke-linecap:square;stroke-linejoin:miter;"/>
   </g>
   <g id="matplotlib.axis_1">
    <g id="xtick_1">
     <g id="line2d_4">
      <defs>
       <path d="M 0 0 
L 0 -4 
" id="m69953e5c4b" style="stroke:#000000;stroke-width:0.5;"/>
      </defs>
      <g>
       <use style="stroke:#000000;stroke-width:0.5;" x="72.0" xlink:href="#m69953e5c4b" y="388.8"/>
      </g>
     </g>
     <g id="line2d_5">
      <defs>
       <path d="M 0 0 
L 0 4 
" id="mf149660746" style="stroke:#000000;stroke-width:0.5;"/>
      </defs>
      <g>
       <use style="stroke:#000000;stroke-width:0.5;" x="72.0" xlink:href="#mf149660746" y="43.2"/>
      </g>
     </g>
     <g id="text_1">
      <!-- 0 -->
      <defs>
       <path d="M 31.78125 66.40625 
Q 24.171875 66.40625 20.328125 58.90625 
Q 16.5 51.421875 16.5 36.375 
Q 16.5 21.390625 20.328125 13.890625 
Q 24.171875 6.390625 31.78125 6.390625 
Q 39.453125 6.390625 43.28125 13.890625 
Q 47.125 21.390625 47.125 36.375 
Q 47.125 51.421875 43.28125 58.90625 
Q 39.453125 66.40625 31.78125 66.40625 
M 31.78125 74.21875 
Q 44.046875 74.21875 50.515625 64.515625 
Q 56.984375 54.828125 56.984375 36.375 
Q 56.984375 17.96875 50.515625 8.265625 
Q 44.046875 -1.421875 31.78125 -1.421875 
Q 19.53125 -1.421875 13.0625 8.265625 
Q 6.59375 17.96875 6.59375 36.375 
Q 6.59375 54.828125 13.0625 64.515625 
Q 19.53125 74.21875 31.78125 74.21875 
" id="BitstreamVeraSans-Roman-30"/>
      </defs>
      <g transform="translate(68.1825 401.918125)scale(0.12 -0.12)">
       <use xlink:href="#BitstreamVeraSans-Roman-30"/>
      </g>
     </g>
    </g>
    <g id="xtick_2">
     <g id="line2d_6">
      <g>
       <use style="stroke:#000000;stroke-width:0.5;" x="161.28" xlink:href="#m69953e5c4b" y="388.8"/>
      </g>
     </g>
     <g id="line2d_7">
      <g>
       <use style="stroke:#000000;stroke-width:0.5;" x="161.28" xlink:href="#mf149660746" y="43.2"/>
      </g>
     </g>
     <g id="text_2">
      <!-- 10 -->
      <defs>
       <path d="M 12.40625 8.296875 
L 28.515625 8.296875 
L 28.515625 63.921875 
L 10.984375 60.40625 
L 10.984375 69.390625 
L 28.421875 72.90625 
L 38.28125 72.90625 
L 38.28125 8.296875 
L 54.390625 8.296875 
L 54.390625 0 
L 12.40625 0 
z
" id="BitstreamVeraSans-Roman-31"/>
      </defs>
      <g transform="translate(153.645 401.918125)scale(0.12 -0.12)">
       <use xlink:href="#BitstreamVeraSans-Roman-31"/>
       <use x="63.623046875" xlink:href="#BitstreamVeraSans-Roman-30"/>
      </g>
     </g>
    </g>
    <g id="xtick_3">
     <g id="line2d_8">
      <g>
       <use style="stroke:#000000;stroke-width:0.5;" x="250.56" xlink:href="#m69953e5c4b" y="388.8"/>
      </g>
     </g>
     <g id="line2d_9">
      <g>
       <use style="stroke:#000000;stroke-width:0.5;" x="250.56" xlink:href="#mf149660746" y="43.2"/>
      </g>
     </g>
     <g id="text_3">
      <!-- 20 -->
      <defs>
       <path d="M 19.1875 8.296875 
L 53.609375 8.296875 
L 53.609375 0 
L 7.328125 0 
L 7.328125 8.296875 
Q 12.9375 14.109375 22.625 23.890625 
Q 32.328125 33.6875 34.8125 36.53125 
Q 39.546875 41.84375 41.421875 45.53125 
Q 43.3125 49.21875 43.3125 52.78125 
Q 43.3125 58.59375 39.234375 62.25 
Q 35.15625 65.921875 28.609375 65.921875 
Q 23.96875 65.921875 18.8125 64.3125 
Q 13.671875 62.703125 7.8125 59.421875 
L 7.8125 69.390625 
Q 13.765625 71.78125 18.9375 73 
Q 24.125 74.21875 28.421875 74.21875 
Q 39.75 74.21875 46.484375 68.546875 
Q 53.21875 62.890625 53.21875 53.421875 
Q 53.21875 48.921875 51.53125 44.890625 
Q 49.859375 40.875 45.40625 35.40625 
Q 44.1875 33.984375 37.640625 27.21875 
Q 31.109375 20.453125 19.1875 8.296875 
" id="BitstreamVeraSans-Roman-32"/>
      </defs>
      <g transform="translate(242.925 401.918125)scale(0.12 -0.12)">
       <use xlink:href="#BitstreamVeraSans-Roman-32"/>
       <use x="63.623046875" xlink:href="#BitstreamVeraSans-Roman-30"/>
      </g>
     </g>
    </g>
    <g id="xtick_4">
     <g id="line2d_10">
      <g>
       <use style="stroke:#000000;stroke-width:0.5;" x="339.84" xlink:href="#m69953e5c4b" y="388.8"/>
      </g>
     </g>
     <g id="line2d_11">
      <g>
       <use style="stroke:#000000;stroke-width:0.5;" x="339.84" xlink:href="#mf149660746" y="43.2"/>
      </g>
     </g>
     <g id="text_4">
      <!-- 30 -->
      <defs>
       <path d="M 40.578125 39.3125 
Q 47.65625 37.796875 51.625 33 
Q 55.609375 28.21875 55.609375 21.1875 
Q 55.609375 10.40625 48.1875 4.484375 
Q 40.765625 -1.421875 27.09375 -1.421875 
Q 22.515625 -1.421875 17.65625 -0.515625 
Q 12.796875 0.390625 7.625 2.203125 
L 7.625 11.71875 
Q 11.71875 9.328125 16.59375 8.109375 
Q 21.484375 6.890625 26.8125 6.890625 
Q 36.078125 6.890625 40.9375 10.546875 
Q 45.796875 14.203125 45.796875 21.1875 
Q 45.796875 27.640625 41.28125 31.265625 
Q 36.765625 34.90625 28.71875 34.90625 
L 20.21875 34.90625 
L 20.21875 43.015625 
L 29.109375 43.015625 
Q 36.375 43.015625 40.234375 45.921875 
Q 44.09375 48.828125 44.09375 54.296875 
Q 44.09375 59.90625 40.109375 62.90625 
Q 36.140625 65.921875 28.71875 65.921875 
Q 24.65625 65.921875 20.015625 65.03125 
Q 15.375 64.15625 9.8125 62.3125 
L 9.8125 71.09375 
Q 15.4375 72.65625 20.34375 73.4375 
Q 25.25 74.21875 29.59375 74.21875 
Q 40.828125 74.21875 47.359375 69.109375 
Q 53.90625 64.015625 53.90625 55.328125 
Q 53.90625 49.265625 50.4375 45.09375 
Q 46.96875 40.921875 40.578125 39.3125 
" id="BitstreamVeraSans-Roman-33"/>
      </defs>
      <g transform="translate(332.205 401.918125)scale(0.12 -0.12)">
       <use xlink:href="#BitstreamVeraSans-Roman-33"/>
       <use x="63.623046875" xlink:href="#BitstreamVeraSans-Roman-30"/>
      </g>
     </g>
    </g>
    <g id="xtick_5">
     <g id="line2d_12">
      <g>
       <use style="stroke:#000000;stroke-width:0.5;" x="429.12" xlink:href="#m69953e5c4b" y="388.8"/>
      </g>
     </g>
     <g id="line2d_13">
      <g>
       <use style="stroke:#000000;stroke-width:0.5;" x="429.12" xlink:href="#mf149660746" y="43.2"/>
      </g>
     </g>
     <g id="text_5">
      <!-- 40 -->
      <defs>
       <path d="M 37.796875 64.3125 
L 12.890625 25.390625 
L 37.796875 25.390625 
z
M 35.203125 72.90625 
L 47.609375 72.90625 
L 47.609375 25.390625 
L 58.015625 25.390625 
L 58.015625 17.1875 
L 47.609375 17.1875 
L 47.609375 0 
L 37.796875 0 
L 37.796875 17.1875 
L 4.890625 17.1875 
L 4.890625 26.703125 
z
" id="BitstreamVeraSans-Roman-34"/>
      </defs>
      <g transform="translate(421.485 401.918125)scale(0.12 -0.12)">
       <use xlink:href="#BitstreamVeraSans-Roman-34"/>
       <use x="63.623046875" xlink:href="#BitstreamVeraSans-Roman-30"/>
      </g>
     </g>
    </g>
    <g id="xtick_6">
     <g id="line2d_14">
      <g>
       <use style="stroke:#000000;stroke-width:0.5;" x="518.4" xlink:href="#m69953e5c4b" y="388.8"/>
      </g>
     </g>
     <g id="line2d_15">
      <g>
       <use style="stroke:#000000;stroke-width:0.5;" x="518.4" xlink:href="#mf149660746" y="43.2"/>
      </g>
     </g>
     <g id="text_6">
      <!-- 50 -->
      <defs>
       <path d="M 10.796875 72.90625 
L 49.515625 72.90625 
L 49.515625 64.59375 
L 19.828125 64.59375 
L 19.828125 46.734375 
Q 21.96875 47.46875 24.109375 47.828125 
Q 26.265625 48.1875 28.421875 48.1875 
Q 40.625 48.1875 47.75 41.5 
Q 54.890625 34.8125 54.890625 23.390625 
Q 54.890625 11.625 47.5625 5.09375 
Q 40.234375 -1.421875 26.90625 -1.421875 
Q 22.3125 -1.421875 17.546875 -0.640625 
Q 12.796875 0.140625 7.71875 1.703125 
L 7.71875 11.625 
Q 12.109375 9.234375 16.796875 8.0625 
Q 21.484375 6.890625 26.703125 6.890625 
Q 35.15625 6.890625 40.078125 11.328125 
Q 45.015625 15.765625 45.015625 23.390625 
Q 45.015625 31 40.078125 35.4375 
Q 35.15625 39.890625 26.703125 39.890625 
Q 22.75 39.890625 18.8125 39.015625 
Q 14.890625 38.140625 10.796875 36.28125 
z
" id="BitstreamVeraSans-Roman-35"/>
      </defs>
      <g transform="translate(510.765 401.918125)scale(0.12 -0.12)">
       <use xlink:href="#BitstreamVeraSans-Roman-35"/>
       <use x="63.623046875" xlink:href="#BitstreamVeraSans-Roman-30"/>
      </g>
     </g>
    </g>
    <g id="text_7">
     <!-- Sample time [$\mu$s] -->
     <defs>
      <path id="BitstreamVeraSans-Roman-20"/>
      <path d="M 8.59375 75.984375 
L 29.296875 75.984375 
L 29.296875 69 
L 17.578125 69 
L 17.578125 -6.203125 
L 29.296875 -6.203125 
L 29.296875 -13.1875 
L 8.59375 -13.1875 
z
" id="BitstreamVeraSans-Roman-5b"/>
      <path d="M 30.421875 75.984375 
L 30.421875 -13.1875 
L 9.71875 -13.1875 
L 9.71875 -6.203125 
L 21.390625 -6.203125 
L 21.390625 69 
L 9.71875 69 
L 9.71875 75.984375 
z
" id="BitstreamVeraSans-Roman-5d"/>
      <path d="M 52 44.1875 
Q 55.375 50.25 60.0625 53.125 
Q 64.75 56 71.09375 56 
Q 79.640625 56 84.28125 50.015625 
Q 88.921875 44.046875 88.921875 33.015625 
L 88.921875 0 
L 79.890625 0 
L 79.890625 32.71875 
Q 79.890625 40.578125 77.09375 44.375 
Q 74.3125 48.1875 68.609375 48.1875 
Q 61.625 48.1875 57.5625 43.546875 
Q 53.515625 38.921875 53.515625 30.90625 
L 53.515625 0 
L 44.484375 0 
L 44.484375 32.71875 
Q 44.484375 40.625 41.703125 44.40625 
Q 38.921875 48.1875 33.109375 48.1875 
Q 26.21875 48.1875 22.15625 43.53125 
Q 18.109375 38.875 18.109375 30.90625 
L 18.109375 0 
L 9.078125 0 
L 9.078125 54.6875 
L 18.109375 54.6875 
L 18.109375 46.1875 
Q 21.1875 51.21875 25.484375 53.609375 
Q 29.78125 56 35.6875 56 
Q 41.65625 56 45.828125 52.96875 
Q 50 49.953125 52 44.1875 
" id="BitstreamVeraSans-Roman-6d"/>
      <path d="M 9.421875 75.984375 
L 18.40625 75.984375 
L 18.40625 0 
L 9.421875 0 
z
" id="BitstreamVeraSans-Roman-6c"/>
      <path d="M 53.515625 70.515625 
L 53.515625 60.890625 
Q 47.90625 63.578125 42.921875 64.890625 
Q 37.9375 66.21875 33.296875 66.21875 
Q 25.25 66.21875 20.875 63.09375 
Q 16.5 59.96875 16.5 54.203125 
Q 16.5 49.359375 19.40625 46.890625 
Q 22.3125 44.4375 30.421875 42.921875 
L 36.375 41.703125 
Q 47.40625 39.59375 52.65625 34.296875 
Q 57.90625 29 57.90625 20.125 
Q 57.90625 9.515625 50.796875 4.046875 
Q 43.703125 -1.421875 29.984375 -1.421875 
Q 24.8125 -1.421875 18.96875 -0.25 
Q 13.140625 0.921875 6.890625 3.21875 
L 6.890625 13.375 
Q 12.890625 10.015625 18.65625 8.296875 
Q 24.421875 6.59375 29.984375 6.59375 
Q 38.421875 6.59375 43.015625 9.90625 
Q 47.609375 13.234375 47.609375 19.390625 
Q 47.609375 24.75 44.3125 27.78125 
Q 41.015625 30.8125 33.5 32.328125 
L 27.484375 33.5 
Q 16.453125 35.6875 11.515625 40.375 
Q 6.59375 45.0625 6.59375 53.421875 
Q 6.59375 63.09375 13.40625 68.65625 
Q 20.21875 74.21875 32.171875 74.21875 
Q 37.3125 74.21875 42.625 73.28125 
Q 47.953125 72.359375 53.515625 70.515625 
" id="BitstreamVeraSans-Roman-53"/>
      <path d="M 9.421875 54.6875 
L 18.40625 54.6875 
L 18.40625 0 
L 9.421875 0 
z
M 9.421875 75.984375 
L 18.40625 75.984375 
L 18.40625 64.59375 
L 9.421875 64.59375 
z
" id="BitstreamVeraSans-Roman-69"/>
      <path d="M 56.203125 29.59375 
L 56.203125 25.203125 
L 14.890625 25.203125 
Q 15.484375 15.921875 20.484375 11.0625 
Q 25.484375 6.203125 34.421875 6.203125 
Q 39.59375 6.203125 44.453125 7.46875 
Q 49.3125 8.734375 54.109375 11.28125 
L 54.109375 2.78125 
Q 49.265625 0.734375 44.1875 -0.34375 
Q 39.109375 -1.421875 33.890625 -1.421875 
Q 20.796875 -1.421875 13.15625 6.1875 
Q 5.515625 13.8125 5.515625 26.8125 
Q 5.515625 40.234375 12.765625 48.109375 
Q 20.015625 56 32.328125 56 
Q 43.359375 56 49.78125 48.890625 
Q 56.203125 41.796875 56.203125 29.59375 
M 47.21875 32.234375 
Q 47.125 39.59375 43.09375 43.984375 
Q 39.0625 48.390625 32.421875 48.390625 
Q 24.90625 48.390625 20.390625 44.140625 
Q 15.875 39.890625 15.1875 32.171875 
z
" id="BitstreamVeraSans-Roman-65"/>
      <path d="M 2.78125 -18.796875 
Q 2.78125 -18.21875 2.875 -18.015625 
L 17.578125 41.015625 
Q 18.015625 42.4375 19.15625 43.3125 
Q 20.3125 44.1875 21.78125 44.1875 
Q 23.046875 44.1875 23.921875 43.421875 
Q 24.8125 42.671875 24.8125 41.40625 
Q 24.8125 41.109375 24.78125 40.9375 
Q 24.75 40.765625 24.703125 40.578125 
L 18.796875 17.1875 
Q 17.828125 13.03125 17.828125 10.015625 
Q 17.828125 6.296875 19.578125 3.90625 
Q 21.34375 1.515625 24.90625 1.515625 
Q 32.171875 1.515625 37.703125 10.59375 
Q 37.75 10.6875 37.765625 10.734375 
Q 37.796875 10.796875 37.796875 10.890625 
L 45.015625 39.890625 
Q 45.359375 41.21875 46.578125 42.15625 
Q 47.796875 43.109375 49.21875 43.109375 
Q 50.390625 43.109375 51.296875 42.328125 
Q 52.203125 41.546875 52.203125 40.28125 
Q 52.203125 39.703125 52.09375 39.5 
L 44.921875 10.6875 
Q 44.1875 7.859375 44.1875 5.8125 
Q 44.1875 1.515625 47.125 1.515625 
Q 50.25 1.515625 51.828125 5.375 
Q 53.421875 9.234375 54.59375 14.703125 
Q 54.78125 15.28125 55.421875 15.28125 
L 56.59375 15.28125 
Q 56.984375 15.28125 57.25 14.96875 
Q 57.515625 14.65625 57.515625 14.3125 
Q 55.765625 7.328125 53.6875 3.09375 
Q 51.609375 -1.125 46.921875 -1.125 
Q 43.609375 -1.125 41.046875 0.78125 
Q 38.484375 2.6875 37.703125 5.90625 
Q 35.203125 2.78125 31.859375 0.828125 
Q 28.515625 -1.125 24.8125 -1.125 
Q 18.5625 -1.125 14.984375 1.8125 
L 9.90625 -18.40625 
Q 9.625 -19.828125 8.453125 -20.703125 
Q 7.28125 -21.578125 5.8125 -21.578125 
Q 4.59375 -21.578125 3.6875 -20.8125 
Q 2.78125 -20.0625 2.78125 -18.796875 
" id="Cmmi10-b9"/>
      <path d="M 18.3125 70.21875 
L 18.3125 54.6875 
L 36.8125 54.6875 
L 36.8125 47.703125 
L 18.3125 47.703125 
L 18.3125 18.015625 
Q 18.3125 11.328125 20.140625 9.421875 
Q 21.96875 7.515625 27.59375 7.515625 
L 36.8125 7.515625 
L 36.8125 0 
L 27.59375 0 
Q 17.1875 0 13.234375 3.875 
Q 9.28125 7.765625 9.28125 18.015625 
L 9.28125 47.703125 
L 2.6875 47.703125 
L 2.6875 54.6875 
L 9.28125 54.6875 
L 9.28125 70.21875 
z
" id="BitstreamVeraSans-Roman-74"/>
      <path d="M 34.28125 27.484375 
Q 23.390625 27.484375 19.1875 25 
Q 14.984375 22.515625 14.984375 16.5 
Q 14.984375 11.71875 18.140625 8.90625 
Q 21.296875 6.109375 26.703125 6.109375 
Q 34.1875 6.109375 38.703125 11.40625 
Q 43.21875 16.703125 43.21875 25.484375 
L 43.21875 27.484375 
z
M 52.203125 31.203125 
L 52.203125 0 
L 43.21875 0 
L 43.21875 8.296875 
Q 40.140625 3.328125 35.546875 0.953125 
Q 30.953125 -1.421875 24.3125 -1.421875 
Q 15.921875 -1.421875 10.953125 3.296875 
Q 6 8.015625 6 15.921875 
Q 6 25.140625 12.171875 29.828125 
Q 18.359375 34.515625 30.609375 34.515625 
L 43.21875 34.515625 
L 43.21875 35.40625 
Q 43.21875 41.609375 39.140625 45 
Q 35.0625 48.390625 27.6875 48.390625 
Q 23 48.390625 18.546875 47.265625 
Q 14.109375 46.140625 10.015625 43.890625 
L 10.015625 52.203125 
Q 14.9375 54.109375 19.578125 55.046875 
Q 24.21875 56 28.609375 56 
Q 40.484375 56 46.34375 49.84375 
Q 52.203125 43.703125 52.203125 31.203125 
" id="BitstreamVeraSans-Roman-61"/>
      <path d="M 44.28125 53.078125 
L 44.28125 44.578125 
Q 40.484375 46.53125 36.375 47.5 
Q 32.28125 48.484375 27.875 48.484375 
Q 21.1875 48.484375 17.84375 46.4375 
Q 14.5 44.390625 14.5 40.28125 
Q 14.5 37.15625 16.890625 35.375 
Q 19.28125 33.59375 26.515625 31.984375 
L 29.59375 31.296875 
Q 39.15625 29.25 43.1875 25.515625 
Q 47.21875 21.78125 47.21875 15.09375 
Q 47.21875 7.46875 41.1875 3.015625 
Q 35.15625 -1.421875 24.609375 -1.421875 
Q 20.21875 -1.421875 15.453125 -0.5625 
Q 10.6875 0.296875 5.421875 2 
L 5.421875 11.28125 
Q 10.40625 8.6875 15.234375 7.390625 
Q 20.0625 6.109375 24.8125 6.109375 
Q 31.15625 6.109375 34.5625 8.28125 
Q 37.984375 10.453125 37.984375 14.40625 
Q 37.984375 18.0625 35.515625 20.015625 
Q 33.0625 21.96875 24.703125 23.78125 
L 21.578125 24.515625 
Q 13.234375 26.265625 9.515625 29.90625 
Q 5.8125 33.546875 5.8125 39.890625 
Q 5.8125 47.609375 11.28125 51.796875 
Q 16.75 56 26.8125 56 
Q 31.78125 56 36.171875 55.265625 
Q 40.578125 54.546875 44.28125 53.078125 
" id="BitstreamVeraSans-Roman-73"/>
      <path d="M 18.109375 8.203125 
L 18.109375 -20.796875 
L 9.078125 -20.796875 
L 9.078125 54.6875 
L 18.109375 54.6875 
L 18.109375 46.390625 
Q 20.953125 51.265625 25.265625 53.625 
Q 29.59375 56 35.59375 56 
Q 45.5625 56 51.78125 48.09375 
Q 58.015625 40.1875 58.015625 27.296875 
Q 58.015625 14.40625 51.78125 6.484375 
Q 45.5625 -1.421875 35.59375 -1.421875 
Q 29.59375 -1.421875 25.265625 0.953125 
Q 20.953125 3.328125 18.109375 8.203125 
M 48.6875 27.296875 
Q 48.6875 37.203125 44.609375 42.84375 
Q 40.53125 48.484375 33.40625 48.484375 
Q 26.265625 48.484375 22.1875 42.84375 
Q 18.109375 37.203125 18.109375 27.296875 
Q 18.109375 17.390625 22.1875 11.75 
Q 26.265625 6.109375 33.40625 6.109375 
Q 40.53125 6.109375 44.609375 11.75 
Q 48.6875 17.390625 48.6875 27.296875 
" id="BitstreamVeraSans-Roman-70"/>
     </defs>
     <g transform="translate(243.9 418.53375)scale(0.12 -0.12)">
      <use transform="translate(0.0 0.015625)" xlink:href="#BitstreamVeraSans-Roman-53"/>
      <use transform="translate(63.4765625 0.015625)" xlink:href="#BitstreamVeraSans-Roman-61"/>
      <use transform="translate(124.755859375 0.015625)" xlink:href="#BitstreamVeraSans-Roman-6d"/>
      <use transform="translate(222.16796875 0.015625)" xlink:href="#BitstreamVeraSans-Roman-70"/>
      <use transform="translate(285.64453125 0.015625)" xlink:href="#BitstreamVeraSans-Roman-6c"/>
      <use transform="translate(313.427734375 0.015625)" xlink:href="#BitstreamVeraSans-Roman-65"/>
      <use transform="translate(374.951171875 0.015625)" xlink:href="#BitstreamVeraSans-Roman-20"/>
      <use transform="translate(406.73828125 0.015625)" xlink:href="#BitstreamVeraSans-Roman-74"/>
      <use transform="translate(445.947265625 0.015625)" xlink:href="#BitstreamVeraSans-Roman-69"/>
      <use transform="translate(473.73046875 0.015625)" xlink:href="#BitstreamVeraSans-Roman-6d"/>
      <use transform="translate(571.142578125 0.015625)" xlink:href="#BitstreamVeraSans-Roman-65"/>
      <use transform="translate(632.666015625 0.015625)" xlink:href="#BitstreamVeraSans-Roman-20"/>
      <use transform="translate(664.453125 0.015625)" xlink:href="#BitstreamVeraSans-Roman-5b"/>
      <use transform="translate(703.466796875 0.015625)" xlink:href="#Cmmi10-b9"/>
      <use transform="translate(763.671875 0.015625)" xlink:href="#BitstreamVeraSans-Roman-73"/>
      <use transform="translate(815.771484375 0.015625)" xlink:href="#BitstreamVeraSans-Roman-5d"/>
     </g>
    </g>
   </g>
   <g id="matplotlib.axis_2">
    <g id="ytick_1">
     <g id="line2d_16">
      <defs>
       <path d="M 0 0 
L 4 0 
" id="mfeb3139d1e" style="stroke:#000000;stroke-width:0.5;"/>
      </defs>
      <g>
       <use style="stroke:#000000;stroke-width:0.5;" x="72.0" xlink:href="#mfeb3139d1e" y="388.8"/>
      </g>
     </g>
     <g id="line2d_17">
      <defs>
       <path d="M 0 0 
L -4 0 
" id="mf74595783b" style="stroke:#000000;stroke-width:0.5;"/>
      </defs>
      <g>
       <use style="stroke:#000000;stroke-width:0.5;" x="518.4" xlink:href="#mf74595783b" y="388.8"/>
      </g>
     </g>
     <g id="text_8">
      <!-- −40 -->
      <defs>
       <path d="M 10.59375 35.5 
L 73.1875 35.5 
L 73.1875 27.203125 
L 10.59375 27.203125 
z
" id="BitstreamVeraSans-Roman-2212"/>
      </defs>
      <g transform="translate(42.674375 392.11125)scale(0.12 -0.12)">
       <use xlink:href="#BitstreamVeraSans-Roman-2212"/>
       <use x="83.7890625" xlink:href="#BitstreamVeraSans-Roman-34"/>
       <use x="147.412109375" xlink:href="#BitstreamVeraSans-Roman-30"/>
      </g>
     </g>
    </g>
    <g id="ytick_2">
     <g id="line2d_18">
      <g>
       <use style="stroke:#000000;stroke-width:0.5;" x="72.0" xlink:href="#mfeb3139d1e" y="322.971428571"/>
      </g>
     </g>
     <g id="line2d_19">
      <g>
       <use style="stroke:#000000;stroke-width:0.5;" x="518.4" xlink:href="#mf74595783b" y="322.971428571"/>
      </g>
     </g>
     <g id="text_9">
      <!-- −20 -->
      <g transform="translate(42.674375 326.282678571)scale(0.12 -0.12)">
       <use xlink:href="#BitstreamVeraSans-Roman-2212"/>
       <use x="83.7890625" xlink:href="#BitstreamVeraSans-Roman-32"/>
       <use x="147.412109375" xlink:href="#BitstreamVeraSans-Roman-30"/>
      </g>
     </g>
    </g>
    <g id="ytick_3">
     <g id="line2d_20">
      <g>
       <use style="stroke:#000000;stroke-width:0.5;" x="72.0" xlink:href="#mfeb3139d1e" y="257.142857143"/>
      </g>
     </g>
     <g id="line2d_21">
      <g>
       <use style="stroke:#000000;stroke-width:0.5;" x="518.4" xlink:href="#mf74595783b" y="257.142857143"/>
      </g>
     </g>
     <g id="text_10">
      <!-- 0 -->
      <g transform="translate(60.365 260.454107143)scale(0.12 -0.12)">
       <use xlink:href="#BitstreamVeraSans-Roman-30"/>
      </g>
     </g>
    </g>
    <g id="ytick_4">
     <g id="line2d_22">
      <g>
       <use style="stroke:#000000;stroke-width:0.5;" x="72.0" xlink:href="#mfeb3139d1e" y="191.314285714"/>
      </g>
     </g>
     <g id="line2d_23">
      <g>
       <use style="stroke:#000000;stroke-width:0.5;" x="518.4" xlink:href="#mf74595783b" y="191.314285714"/>
      </g>
     </g>
     <g id="text_11">
      <!-- 20 -->
      <g transform="translate(52.73 194.625535714)scale(0.12 -0.12)">
       <use xlink:href="#BitstreamVeraSans-Roman-32"/>
       <use x="63.623046875" xlink:href="#BitstreamVeraSans-Roman-30"/>
      </g>
     </g>
    </g>
    <g id="ytick_5">
     <g id="line2d_24">
      <g>
       <use style="stroke:#000000;stroke-width:0.5;" x="72.0" xlink:href="#mfeb3139d1e" y="125.485714286"/>
      </g>
     </g>
     <g id="line2d_25">
      <g>
       <use style="stroke:#000000;stroke-width:0.5;" x="518.4" xlink:href="#mf74595783b" y="125.485714286"/>
      </g>
     </g>
     <g id="text_12">
      <!-- 40 -->
      <g transform="translate(52.73 128.796964286)scale(0.12 -0.12)">
       <use xlink:href="#BitstreamVeraSans-Roman-34"/>
       <use x="63.623046875" xlink:href="#BitstreamVeraSans-Roman-30"/>
      </g>
     </g>
    </g>
    <g id="ytick_6">
     <g id="line2d_26">
      <g>
       <use style="stroke:#000000;stroke-width:0.5;" x="72.0" xlink:href="#mfeb3139d1e" y="59.6571428571"/>
      </g>
     </g>
     <g id="line2d_27">
      <g>
       <use style="stroke:#000000;stroke-width:0.5;" x="518.4" xlink:href="#mf74595783b" y="59.6571428571"/>
      </g>
     </g>
     <g id="text_13">
      <!-- 60 -->
      <defs>
       <path d="M 33.015625 40.375 
Q 26.375 40.375 22.484375 35.828125 
Q 18.609375 31.296875 18.609375 23.390625 
Q 18.609375 15.53125 22.484375 10.953125 
Q 26.375 6.390625 33.015625 6.390625 
Q 39.65625 6.390625 43.53125 10.953125 
Q 47.40625 15.53125 47.40625 23.390625 
Q 47.40625 31.296875 43.53125 35.828125 
Q 39.65625 40.375 33.015625 40.375 
M 52.59375 71.296875 
L 52.59375 62.3125 
Q 48.875 64.0625 45.09375 64.984375 
Q 41.3125 65.921875 37.59375 65.921875 
Q 27.828125 65.921875 22.671875 59.328125 
Q 17.53125 52.734375 16.796875 39.40625 
Q 19.671875 43.65625 24.015625 45.921875 
Q 28.375 48.1875 33.59375 48.1875 
Q 44.578125 48.1875 50.953125 41.515625 
Q 57.328125 34.859375 57.328125 23.390625 
Q 57.328125 12.15625 50.6875 5.359375 
Q 44.046875 -1.421875 33.015625 -1.421875 
Q 20.359375 -1.421875 13.671875 8.265625 
Q 6.984375 17.96875 6.984375 36.375 
Q 6.984375 53.65625 15.1875 63.9375 
Q 23.390625 74.21875 37.203125 74.21875 
Q 40.921875 74.21875 44.703125 73.484375 
Q 48.484375 72.75 52.59375 71.296875 
" id="BitstreamVeraSans-Roman-36"/>
      </defs>
      <g transform="translate(52.73 62.9683928571)scale(0.12 -0.12)">
       <use xlink:href="#BitstreamVeraSans-Roman-36"/>
       <use x="63.623046875" xlink:href="#BitstreamVeraSans-Roman-30"/>
      </g>
     </g>
    </g>
    <g id="text_14">
     <!-- ADC (baseline subtracted) -->
     <defs>
      <path d="M 54.890625 33.015625 
L 54.890625 0 
L 45.90625 0 
L 45.90625 32.71875 
Q 45.90625 40.484375 42.875 44.328125 
Q 39.84375 48.1875 33.796875 48.1875 
Q 26.515625 48.1875 22.3125 43.546875 
Q 18.109375 38.921875 18.109375 30.90625 
L 18.109375 0 
L 9.078125 0 
L 9.078125 54.6875 
L 18.109375 54.6875 
L 18.109375 46.1875 
Q 21.34375 51.125 25.703125 53.5625 
Q 30.078125 56 35.796875 56 
Q 45.21875 56 50.046875 50.171875 
Q 54.890625 44.34375 54.890625 33.015625 
" id="BitstreamVeraSans-Roman-6e"/>
      <path d="M 31 75.875 
Q 24.46875 64.65625 21.28125 53.65625 
Q 18.109375 42.671875 18.109375 31.390625 
Q 18.109375 20.125 21.3125 9.0625 
Q 24.515625 -2 31 -13.1875 
L 23.1875 -13.1875 
Q 15.875 -1.703125 12.234375 9.375 
Q 8.59375 20.453125 8.59375 31.390625 
Q 8.59375 42.28125 12.203125 53.3125 
Q 15.828125 64.359375 23.1875 75.875 
z
" id="BitstreamVeraSans-Roman-28"/>
      <path d="M 8.015625 75.875 
L 15.828125 75.875 
Q 23.140625 64.359375 26.78125 53.3125 
Q 30.421875 42.28125 30.421875 31.390625 
Q 30.421875 20.453125 26.78125 9.375 
Q 23.140625 -1.703125 15.828125 -13.1875 
L 8.015625 -13.1875 
Q 14.5 -2 17.703125 9.0625 
Q 20.90625 20.125 20.90625 31.390625 
Q 20.90625 42.671875 17.703125 53.65625 
Q 14.5 64.65625 8.015625 75.875 
" id="BitstreamVeraSans-Roman-29"/>
      <path d="M 19.671875 64.796875 
L 19.671875 8.109375 
L 31.59375 8.109375 
Q 46.6875 8.109375 53.6875 14.9375 
Q 60.6875 21.78125 60.6875 36.53125 
Q 60.6875 51.171875 53.6875 57.984375 
Q 46.6875 64.796875 31.59375 64.796875 
z
M 9.8125 72.90625 
L 30.078125 72.90625 
Q 51.265625 72.90625 61.171875 64.09375 
Q 71.09375 55.28125 71.09375 36.53125 
Q 71.09375 17.671875 61.125 8.828125 
Q 51.171875 0 30.078125 0 
L 9.8125 0 
z
" id="BitstreamVeraSans-Roman-44"/>
      <path d="M 64.40625 67.28125 
L 64.40625 56.890625 
Q 59.421875 61.53125 53.78125 63.8125 
Q 48.140625 66.109375 41.796875 66.109375 
Q 29.296875 66.109375 22.65625 58.46875 
Q 16.015625 50.828125 16.015625 36.375 
Q 16.015625 21.96875 22.65625 14.328125 
Q 29.296875 6.6875 41.796875 6.6875 
Q 48.140625 6.6875 53.78125 8.984375 
Q 59.421875 11.28125 64.40625 15.921875 
L 64.40625 5.609375 
Q 59.234375 2.09375 53.4375 0.328125 
Q 47.65625 -1.421875 41.21875 -1.421875 
Q 24.65625 -1.421875 15.125 8.703125 
Q 5.609375 18.84375 5.609375 36.375 
Q 5.609375 53.953125 15.125 64.078125 
Q 24.65625 74.21875 41.21875 74.21875 
Q 47.75 74.21875 53.53125 72.484375 
Q 59.328125 70.75 64.40625 67.28125 
" id="BitstreamVeraSans-Roman-43"/>
      <path d="M 34.1875 63.1875 
L 20.796875 26.90625 
L 47.609375 26.90625 
z
M 28.609375 72.90625 
L 39.796875 72.90625 
L 67.578125 0 
L 57.328125 0 
L 50.6875 18.703125 
L 17.828125 18.703125 
L 11.1875 0 
L 0.78125 0 
z
" id="BitstreamVeraSans-Roman-41"/>
      <path d="M 45.40625 46.390625 
L 45.40625 75.984375 
L 54.390625 75.984375 
L 54.390625 0 
L 45.40625 0 
L 45.40625 8.203125 
Q 42.578125 3.328125 38.25 0.953125 
Q 33.9375 -1.421875 27.875 -1.421875 
Q 17.96875 -1.421875 11.734375 6.484375 
Q 5.515625 14.40625 5.515625 27.296875 
Q 5.515625 40.1875 11.734375 48.09375 
Q 17.96875 56 27.875 56 
Q 33.9375 56 38.25 53.625 
Q 42.578125 51.265625 45.40625 46.390625 
M 14.796875 27.296875 
Q 14.796875 17.390625 18.875 11.75 
Q 22.953125 6.109375 30.078125 6.109375 
Q 37.203125 6.109375 41.296875 11.75 
Q 45.40625 17.390625 45.40625 27.296875 
Q 45.40625 37.203125 41.296875 42.84375 
Q 37.203125 48.484375 30.078125 48.484375 
Q 22.953125 48.484375 18.875 42.84375 
Q 14.796875 37.203125 14.796875 27.296875 
" id="BitstreamVeraSans-Roman-64"/>
      <path d="M 8.5 21.578125 
L 8.5 54.6875 
L 17.484375 54.6875 
L 17.484375 21.921875 
Q 17.484375 14.15625 20.5 10.265625 
Q 23.53125 6.390625 29.59375 6.390625 
Q 36.859375 6.390625 41.078125 11.03125 
Q 45.3125 15.671875 45.3125 23.6875 
L 45.3125 54.6875 
L 54.296875 54.6875 
L 54.296875 0 
L 45.3125 0 
L 45.3125 8.40625 
Q 42.046875 3.421875 37.71875 1 
Q 33.40625 -1.421875 27.6875 -1.421875 
Q 18.265625 -1.421875 13.375 4.4375 
Q 8.5 10.296875 8.5 21.578125 
" id="BitstreamVeraSans-Roman-75"/>
      <path d="M 41.109375 46.296875 
Q 39.59375 47.171875 37.8125 47.578125 
Q 36.03125 48 33.890625 48 
Q 26.265625 48 22.1875 43.046875 
Q 18.109375 38.09375 18.109375 28.8125 
L 18.109375 0 
L 9.078125 0 
L 9.078125 54.6875 
L 18.109375 54.6875 
L 18.109375 46.1875 
Q 20.953125 51.171875 25.484375 53.578125 
Q 30.03125 56 36.53125 56 
Q 37.453125 56 38.578125 55.875 
Q 39.703125 55.765625 41.0625 55.515625 
z
" id="BitstreamVeraSans-Roman-72"/>
      <path d="M 48.78125 52.59375 
L 48.78125 44.1875 
Q 44.96875 46.296875 41.140625 47.34375 
Q 37.3125 48.390625 33.40625 48.390625 
Q 24.65625 48.390625 19.8125 42.84375 
Q 14.984375 37.3125 14.984375 27.296875 
Q 14.984375 17.28125 19.8125 11.734375 
Q 24.65625 6.203125 33.40625 6.203125 
Q 37.3125 6.203125 41.140625 7.25 
Q 44.96875 8.296875 48.78125 10.40625 
L 48.78125 2.09375 
Q 45.015625 0.34375 40.984375 -0.53125 
Q 36.96875 -1.421875 32.421875 -1.421875 
Q 20.0625 -1.421875 12.78125 6.34375 
Q 5.515625 14.109375 5.515625 27.296875 
Q 5.515625 40.671875 12.859375 48.328125 
Q 20.21875 56 33.015625 56 
Q 37.15625 56 41.109375 55.140625 
Q 45.0625 54.296875 48.78125 52.59375 
" id="BitstreamVeraSans-Roman-63"/>
      <path d="M 48.6875 27.296875 
Q 48.6875 37.203125 44.609375 42.84375 
Q 40.53125 48.484375 33.40625 48.484375 
Q 26.265625 48.484375 22.1875 42.84375 
Q 18.109375 37.203125 18.109375 27.296875 
Q 18.109375 17.390625 22.1875 11.75 
Q 26.265625 6.109375 33.40625 6.109375 
Q 40.53125 6.109375 44.609375 11.75 
Q 48.6875 17.390625 48.6875 27.296875 
M 18.109375 46.390625 
Q 20.953125 51.265625 25.265625 53.625 
Q 29.59375 56 35.59375 56 
Q 45.5625 56 51.78125 48.09375 
Q 58.015625 40.1875 58.015625 27.296875 
Q 58.015625 14.40625 51.78125 6.484375 
Q 45.5625 -1.421875 35.59375 -1.421875 
Q 29.59375 -1.421875 25.265625 0.953125 
Q 20.953125 3.328125 18.109375 8.203125 
L 18.109375 0 
L 9.078125 0 
L 9.078125 75.984375 
L 18.109375 75.984375 
z
" id="BitstreamVeraSans-Roman-62"/>
     </defs>
     <g transform="translate(35.17875 294.92625)rotate(-90.0)scale(0.12 -0.12)">
      <use xlink:href="#BitstreamVeraSans-Roman-41"/>
      <use x="68.408203125" xlink:href="#BitstreamVeraSans-Roman-44"/>
      <use x="145.41015625" xlink:href="#BitstreamVeraSans-Roman-43"/>
      <use x="215.234375" xlink:href="#BitstreamVeraSans-Roman-20"/>
      <use x="247.021484375" xlink:href="#BitstreamVeraSans-Roman-28"/>
      <use x="286.03515625" xlink:href="#BitstreamVeraSans-Roman-62"/>
      <use x="349.51171875" xlink:href="#BitstreamVeraSans-Roman-61"/>
      <use x="410.791015625" xlink:href="#BitstreamVeraSans-Roman-73"/>
      <use x="462.890625" xlink:href="#BitstreamVeraSans-Roman-65"/>
      <use x="524.4140625" xlink:href="#BitstreamVeraSans-Roman-6c"/>
      <use x="552.197265625" xlink:href="#BitstreamVeraSans-Roman-69"/>
      <use x="579.98046875" xlink:href="#BitstreamVeraSans-Roman-6e"/>
      <use x="643.359375" xlink:href="#BitstreamVeraSans-Roman-65"/>
      <use x="704.8828125" xlink:href="#BitstreamVeraSans-Roman-20"/>
      <use x="736.669921875" xlink:href="#BitstreamVeraSans-Roman-73"/>
      <use x="788.76953125" xlink:href="#BitstreamVeraSans-Roman-75"/>
      <use x="852.1484375" xlink:href="#BitstreamVeraSans-Roman-62"/>
      <use x="915.625" xlink:href="#BitstreamVeraSans-Roman-74"/>
      <use x="954.833984375" xlink:href="#BitstreamVeraSans-Roman-72"/>
      <use x="995.947265625" xlink:href="#BitstreamVeraSans-Roman-61"/>
      <use x="1057.2265625" xlink:href="#BitstreamVeraSans-Roman-63"/>
      <use x="1112.20703125" xlink:href="#BitstreamVeraSans-Roman-74"/>
      <use x="1151.41601562" xlink:href="#BitstreamVeraSans-Roman-65"/>
      <use x="1212.93945312" xlink:href="#BitstreamVeraSans-Roman-64"/>
      <use x="1276.41601562" xlink:href="#BitstreamVeraSans-Roman-29"/>
     </g>
    </g>
   </g>
   <g id="text_15">
    <!--    Garfield 2D calculation -->
    <defs>
     <path d="M 59.515625 10.40625 
L 59.515625 29.984375 
L 43.40625 29.984375 
L 43.40625 38.09375 
L 69.28125 38.09375 
L 69.28125 6.78125 
Q 63.578125 2.734375 56.6875 0.65625 
Q 49.8125 -1.421875 42 -1.421875 
Q 24.90625 -1.421875 15.25 8.5625 
Q 5.609375 18.5625 5.609375 36.375 
Q 5.609375 54.25 15.25 64.234375 
Q 24.90625 74.21875 42 74.21875 
Q 49.125 74.21875 55.546875 72.453125 
Q 61.96875 70.703125 67.390625 67.28125 
L 67.390625 56.78125 
Q 61.921875 61.421875 55.765625 63.765625 
Q 49.609375 66.109375 42.828125 66.109375 
Q 29.4375 66.109375 22.71875 58.640625 
Q 16.015625 51.171875 16.015625 36.375 
Q 16.015625 21.625 22.71875 14.15625 
Q 29.4375 6.6875 42.828125 6.6875 
Q 48.046875 6.6875 52.140625 7.59375 
Q 56.25 8.5 59.515625 10.40625 
" id="BitstreamVeraSans-Roman-47"/>
     <path d="M 37.109375 75.984375 
L 37.109375 68.5 
L 28.515625 68.5 
Q 23.6875 68.5 21.796875 66.546875 
Q 19.921875 64.59375 19.921875 59.515625 
L 19.921875 54.6875 
L 34.71875 54.6875 
L 34.71875 47.703125 
L 19.921875 47.703125 
L 19.921875 0 
L 10.890625 0 
L 10.890625 47.703125 
L 2.296875 47.703125 
L 2.296875 54.6875 
L 10.890625 54.6875 
L 10.890625 58.5 
Q 10.890625 67.625 15.140625 71.796875 
Q 19.390625 75.984375 28.609375 75.984375 
z
" id="BitstreamVeraSans-Roman-66"/>
     <path d="M 30.609375 48.390625 
Q 23.390625 48.390625 19.1875 42.75 
Q 14.984375 37.109375 14.984375 27.296875 
Q 14.984375 17.484375 19.15625 11.84375 
Q 23.34375 6.203125 30.609375 6.203125 
Q 37.796875 6.203125 41.984375 11.859375 
Q 46.1875 17.53125 46.1875 27.296875 
Q 46.1875 37.015625 41.984375 42.703125 
Q 37.796875 48.390625 30.609375 48.390625 
M 30.609375 56 
Q 42.328125 56 49.015625 48.375 
Q 55.71875 40.765625 55.71875 27.296875 
Q 55.71875 13.875 49.015625 6.21875 
Q 42.328125 -1.421875 30.609375 -1.421875 
Q 18.84375 -1.421875 12.171875 6.21875 
Q 5.515625 13.875 5.515625 27.296875 
Q 5.515625 40.765625 12.171875 48.375 
Q 18.84375 56 30.609375 56 
" id="BitstreamVeraSans-Roman-6f"/>
    </defs>
    <g transform="translate(116.64 177.876910714)scale(0.12 -0.12)">
     <use xlink:href="#BitstreamVeraSans-Roman-20"/>
     <use x="31.787109375" xlink:href="#BitstreamVeraSans-Roman-20"/>
     <use x="63.57421875" xlink:href="#BitstreamVeraSans-Roman-20"/>
     <use x="95.361328125" xlink:href="#BitstreamVeraSans-Roman-47"/>
     <use x="172.8515625" xlink:href="#BitstreamVeraSans-Roman-61"/>
     <use x="234.130859375" xlink:href="#BitstreamVeraSans-Roman-72"/>
     <use x="275.244140625" xlink:href="#BitstreamVeraSans-Roman-66"/>
     <use x="310.44921875" xlink:href="#BitstreamVeraSans-Roman-69"/>
     <use x="338.232421875" xlink:href="#BitstreamVeraSans-Roman-65"/>
     <use x="399.755859375" xlink:href="#BitstreamVeraSans-Roman-6c"/>
     <use x="427.5390625" xlink:href="#BitstreamVeraSans-Roman-64"/>
     <use x="491.015625" xlink:href="#BitstreamVeraSans-Roman-20"/>
     <use x="522.802734375" xlink:href="#BitstreamVeraSans-Roman-32"/>
     <use x="586.42578125" xlink:href="#BitstreamVeraSans-Roman-44"/>
     <use x="663.427734375" xlink:href="#BitstreamVeraSans-Roman-20"/>
     <use x="695.21484375" xlink:href="#BitstreamVeraSans-Roman-63"/>
     <use x="750.1953125" xlink:href="#BitstreamVeraSans-Roman-61"/>
     <use x="811.474609375" xlink:href="#BitstreamVeraSans-Roman-6c"/>
     <use x="839.2578125" xlink:href="#BitstreamVeraSans-Roman-63"/>
     <use x="894.23828125" xlink:href="#BitstreamVeraSans-Roman-75"/>
     <use x="957.6171875" xlink:href="#BitstreamVeraSans-Roman-6c"/>
     <use x="985.400390625" xlink:href="#BitstreamVeraSans-Roman-61"/>
     <use x="1046.6796875" xlink:href="#BitstreamVeraSans-Roman-74"/>
     <use x="1085.88867188" xlink:href="#BitstreamVeraSans-Roman-69"/>
     <use x="1113.671875" xlink:href="#BitstreamVeraSans-Roman-6f"/>
     <use x="1174.85351562" xlink:href="#BitstreamVeraSans-Roman-6e"/>
    </g>
    <!-- (perpendicular line source) -->
    <g transform="translate(116.64 191.314285714)scale(0.12 -0.12)">
     <use xlink:href="#BitstreamVeraSans-Roman-28"/>
     <use x="39.013671875" xlink:href="#BitstreamVeraSans-Roman-70"/>
     <use x="102.490234375" xlink:href="#BitstreamVeraSans-Roman-65"/>
     <use x="164.013671875" xlink:href="#BitstreamVeraSans-Roman-72"/>
     <use x="205.126953125" xlink:href="#BitstreamVeraSans-Roman-70"/>
     <use x="268.603515625" xlink:href="#BitstreamVeraSans-Roman-65"/>
     <use x="330.126953125" xlink:href="#BitstreamVeraSans-Roman-6e"/>
     <use x="393.505859375" xlink:href="#BitstreamVeraSans-Roman-64"/>
     <use x="456.982421875" xlink:href="#BitstreamVeraSans-Roman-69"/>
     <use x="484.765625" xlink:href="#BitstreamVeraSans-Roman-63"/>
     <use x="539.74609375" xlink:href="#BitstreamVeraSans-Roman-75"/>
     <use x="603.125" xlink:href="#BitstreamVeraSans-Roman-6c"/>
     <use x="630.908203125" xlink:href="#BitstreamVeraSans-Roman-61"/>
     <use x="692.1875" xlink:href="#BitstreamVeraSans-Roman-72"/>
     <use x="733.30078125" xlink:href="#BitstreamVeraSans-Roman-20"/>
     <use x="765.087890625" xlink:href="#BitstreamVeraSans-Roman-6c"/>
     <use x="792.87109375" xlink:href="#BitstreamVeraSans-Roman-69"/>
     <use x="820.654296875" xlink:href="#BitstreamVeraSans-Roman-6e"/>
     <use x="884.033203125" xlink:href="#BitstreamVeraSans-Roman-65"/>
     <use x="945.556640625" xlink:href="#BitstreamVeraSans-Roman-20"/>
     <use x="977.34375" xlink:href="#BitstreamVeraSans-Roman-73"/>
     <use x="1029.44335938" xlink:href="#BitstreamVeraSans-Roman-6f"/>
     <use x="1090.625" xlink:href="#BitstreamVeraSans-Roman-75"/>
     <use x="1154.00390625" xlink:href="#BitstreamVeraSans-Roman-72"/>
     <use x="1195.0859375" xlink:href="#BitstreamVeraSans-Roman-63"/>
     <use x="1250.06640625" xlink:href="#BitstreamVeraSans-Roman-65"/>
     <use x="1311.58984375" xlink:href="#BitstreamVeraSans-Roman-29"/>
    </g>
   </g>
   <g id="text_16">
    <!-- ADC Waveform with 2D MicroBooNE Wire Plane Model -->
    <defs>
     <path d="M 9.8125 72.90625 
L 23.09375 72.90625 
L 55.421875 11.921875 
L 55.421875 72.90625 
L 64.984375 72.90625 
L 64.984375 0 
L 51.703125 0 
L 19.390625 60.984375 
L 19.390625 0 
L 9.8125 0 
z
" id="BitstreamVeraSans-Roman-4e"/>
     <path d="M 9.8125 72.90625 
L 24.515625 72.90625 
L 43.109375 23.296875 
L 61.8125 72.90625 
L 76.515625 72.90625 
L 76.515625 0 
L 66.890625 0 
L 66.890625 64.015625 
L 48.09375 14.015625 
L 38.1875 14.015625 
L 19.390625 64.015625 
L 19.390625 0 
L 9.8125 0 
z
" id="BitstreamVeraSans-Roman-4d"/>
     <path d="M 19.671875 64.796875 
L 19.671875 37.40625 
L 32.078125 37.40625 
Q 38.96875 37.40625 42.71875 40.96875 
Q 46.484375 44.53125 46.484375 51.125 
Q 46.484375 57.671875 42.71875 61.234375 
Q 38.96875 64.796875 32.078125 64.796875 
z
M 9.8125 72.90625 
L 32.078125 72.90625 
Q 44.34375 72.90625 50.609375 67.359375 
Q 56.890625 61.8125 56.890625 51.125 
Q 56.890625 40.328125 50.609375 34.8125 
Q 44.34375 29.296875 32.078125 29.296875 
L 19.671875 29.296875 
L 19.671875 0 
L 9.8125 0 
z
" id="BitstreamVeraSans-Roman-50"/>
     <path d="M 9.8125 72.90625 
L 55.90625 72.90625 
L 55.90625 64.59375 
L 19.671875 64.59375 
L 19.671875 43.015625 
L 54.390625 43.015625 
L 54.390625 34.71875 
L 19.671875 34.71875 
L 19.671875 8.296875 
L 56.78125 8.296875 
L 56.78125 0 
L 9.8125 0 
z
" id="BitstreamVeraSans-Roman-45"/>
     <path d="M 19.671875 34.8125 
L 19.671875 8.109375 
L 35.5 8.109375 
Q 43.453125 8.109375 47.28125 11.40625 
Q 51.125 14.703125 51.125 21.484375 
Q 51.125 28.328125 47.28125 31.5625 
Q 43.453125 34.8125 35.5 34.8125 
z
M 19.671875 64.796875 
L 19.671875 42.828125 
L 34.28125 42.828125 
Q 41.5 42.828125 45.03125 45.53125 
Q 48.578125 48.25 48.578125 53.8125 
Q 48.578125 59.328125 45.03125 62.0625 
Q 41.5 64.796875 34.28125 64.796875 
z
M 9.8125 72.90625 
L 35.015625 72.90625 
Q 46.296875 72.90625 52.390625 68.21875 
Q 58.5 63.53125 58.5 54.890625 
Q 58.5 48.1875 55.375 44.234375 
Q 52.25 40.28125 46.1875 39.3125 
Q 53.46875 37.75 57.5 32.78125 
Q 61.53125 27.828125 61.53125 20.40625 
Q 61.53125 10.640625 54.890625 5.3125 
Q 48.25 0 35.984375 0 
L 9.8125 0 
z
" id="BitstreamVeraSans-Roman-42"/>
     <path d="M 3.328125 72.90625 
L 13.28125 72.90625 
L 28.609375 11.28125 
L 43.890625 72.90625 
L 54.984375 72.90625 
L 70.3125 11.28125 
L 85.59375 72.90625 
L 95.609375 72.90625 
L 77.296875 0 
L 64.890625 0 
L 49.515625 63.28125 
L 33.984375 0 
L 21.578125 0 
z
" id="BitstreamVeraSans-Roman-57"/>
     <path d="M 2.984375 54.6875 
L 12.5 54.6875 
L 29.59375 8.796875 
L 46.6875 54.6875 
L 56.203125 54.6875 
L 35.6875 0 
L 23.484375 0 
z
" id="BitstreamVeraSans-Roman-76"/>
     <path d="M 4.203125 54.6875 
L 13.1875 54.6875 
L 24.421875 12.015625 
L 35.59375 54.6875 
L 46.1875 54.6875 
L 57.421875 12.015625 
L 68.609375 54.6875 
L 77.59375 54.6875 
L 63.28125 0 
L 52.6875 0 
L 40.921875 44.828125 
L 29.109375 0 
L 18.5 0 
z
" id="BitstreamVeraSans-Roman-77"/>
     <path d="M 54.890625 33.015625 
L 54.890625 0 
L 45.90625 0 
L 45.90625 32.71875 
Q 45.90625 40.484375 42.875 44.328125 
Q 39.84375 48.1875 33.796875 48.1875 
Q 26.515625 48.1875 22.3125 43.546875 
Q 18.109375 38.921875 18.109375 30.90625 
L 18.109375 0 
L 9.078125 0 
L 9.078125 75.984375 
L 18.109375 75.984375 
L 18.109375 46.1875 
Q 21.34375 51.125 25.703125 53.5625 
Q 30.078125 56 35.796875 56 
Q 45.21875 56 50.046875 50.171875 
Q 54.890625 44.34375 54.890625 33.015625 
" id="BitstreamVeraSans-Roman-68"/>
    </defs>
    <g transform="translate(100.065375 38.2)scale(0.144 -0.144)">
     <use xlink:href="#BitstreamVeraSans-Roman-41"/>
     <use x="68.408203125" xlink:href="#BitstreamVeraSans-Roman-44"/>
     <use x="145.41015625" xlink:href="#BitstreamVeraSans-Roman-43"/>
     <use x="215.234375" xlink:href="#BitstreamVeraSans-Roman-20"/>
     <use x="247.021484375" xlink:href="#BitstreamVeraSans-Roman-57"/>
     <use x="345.8046875" xlink:href="#BitstreamVeraSans-Roman-61"/>
     <use x="407.083984375" xlink:href="#BitstreamVeraSans-Roman-76"/>
     <use x="466.263671875" xlink:href="#BitstreamVeraSans-Roman-65"/>
     <use x="527.787109375" xlink:href="#BitstreamVeraSans-Roman-66"/>
     <use x="562.9921875" xlink:href="#BitstreamVeraSans-Roman-6f"/>
     <use x="624.173828125" xlink:href="#BitstreamVeraSans-Roman-72"/>
     <use x="665.271484375" xlink:href="#BitstreamVeraSans-Roman-6d"/>
     <use x="762.68359375" xlink:href="#BitstreamVeraSans-Roman-20"/>
     <use x="794.470703125" xlink:href="#BitstreamVeraSans-Roman-77"/>
     <use x="876.2578125" xlink:href="#BitstreamVeraSans-Roman-69"/>
     <use x="904.041015625" xlink:href="#BitstreamVeraSans-Roman-74"/>
     <use x="943.25" xlink:href="#BitstreamVeraSans-Roman-68"/>
     <use x="1006.62890625" xlink:href="#BitstreamVeraSans-Roman-20"/>
     <use x="1038.41601562" xlink:href="#BitstreamVeraSans-Roman-32"/>
     <use x="1102.0390625" xlink:href="#BitstreamVeraSans-Roman-44"/>
     <use x="1179.04101562" xlink:href="#BitstreamVeraSans-Roman-20"/>
     <use x="1210.828125" xlink:href="#BitstreamVeraSans-Roman-4d"/>
     <use x="1297.10742188" xlink:href="#BitstreamVeraSans-Roman-69"/>
     <use x="1324.890625" xlink:href="#BitstreamVeraSans-Roman-63"/>
     <use x="1379.87109375" xlink:href="#BitstreamVeraSans-Roman-72"/>
     <use x="1420.953125" xlink:href="#BitstreamVeraSans-Roman-6f"/>
     <use x="1482.13476562" xlink:href="#BitstreamVeraSans-Roman-42"/>
     <use x="1550.73828125" xlink:href="#BitstreamVeraSans-Roman-6f"/>
     <use x="1611.91992188" xlink:href="#BitstreamVeraSans-Roman-6f"/>
     <use x="1673.1015625" xlink:href="#BitstreamVeraSans-Roman-4e"/>
     <use x="1747.90625" xlink:href="#BitstreamVeraSans-Roman-45"/>
     <use x="1811.08984375" xlink:href="#BitstreamVeraSans-Roman-20"/>
     <use x="1842.87695312" xlink:href="#BitstreamVeraSans-Roman-57"/>
     <use x="1941.72265625" xlink:href="#BitstreamVeraSans-Roman-69"/>
     <use x="1969.50585938" xlink:href="#BitstreamVeraSans-Roman-72"/>
     <use x="2010.58789062" xlink:href="#BitstreamVeraSans-Roman-65"/>
     <use x="2072.11132812" xlink:href="#BitstreamVeraSans-Roman-20"/>
     <use x="2103.8984375" xlink:href="#BitstreamVeraSans-Roman-50"/>
     <use x="2164.20117188" xlink:href="#BitstreamVeraSans-Roman-6c"/>
     <use x="2191.984375" xlink:href="#BitstreamVeraSans-Roman-61"/>
     <use x="2253.26367188" xlink:href="#BitstreamVeraSans-Roman-6e"/>
     <use x="2316.64257812" xlink:href="#BitstreamVeraSans-Roman-65"/>
     <use x="2378.16601562" xlink:href="#BitstreamVeraSans-Roman-20"/>
     <use x="2409.953125" xlink:href="#BitstreamVeraSans-Roman-4d"/>
     <use x="2496.23242188" xlink:href="#BitstreamVeraSans-Roman-6f"/>
     <use x="2557.4140625" xlink:href="#BitstreamVeraSans-Roman-64"/>
     <use x="2620.890625" xlink:href="#BitstreamVeraSans-Roman-65"/>
     <use x="2682.4140625" xlink:href="#BitstreamVeraSans-Roman-6c"/>
    </g>
   </g>
   <g id="legend_1">
    <g id="patch_7">
     <path d="M 79.2 118.1295 
L 177.327 118.1295 
L 177.327 50.4 
L 79.2 50.4 
z
" style="fill:#ffffff;stroke:#000000;stroke-linejoin:miter;"/>
    </g>
    <g id="line2d_28">
     <path d="M 89.28 62.06175 
L 109.44 62.06175 
" style="fill:none;stroke:#ff0000;stroke-linecap:square;"/>
    </g>
    <g id="line2d_29"/>
    <g id="text_17">
     <!-- U-wire -->
     <defs>
      <path d="M 8.6875 72.90625 
L 18.609375 72.90625 
L 18.609375 28.609375 
Q 18.609375 16.890625 22.84375 11.734375 
Q 27.09375 6.59375 36.625 6.59375 
Q 46.09375 6.59375 50.34375 11.734375 
Q 54.59375 16.890625 54.59375 28.609375 
L 54.59375 72.90625 
L 64.5 72.90625 
L 64.5 27.390625 
Q 64.5 13.140625 57.4375 5.859375 
Q 50.390625 -1.421875 36.625 -1.421875 
Q 22.796875 -1.421875 15.734375 5.859375 
Q 8.6875 13.140625 8.6875 27.390625 
z
" id="BitstreamVeraSans-Roman-55"/>
      <path d="M 4.890625 31.390625 
L 31.203125 31.390625 
L 31.203125 23.390625 
L 4.890625 23.390625 
z
" id="BitstreamVeraSans-Roman-2d"/>
     </defs>
     <g transform="translate(125.28 67.10175)scale(0.144 -0.144)">
      <use xlink:href="#BitstreamVeraSans-Roman-55"/>
      <use x="73.193359375" xlink:href="#BitstreamVeraSans-Roman-2d"/>
      <use x="109.27734375" xlink:href="#BitstreamVeraSans-Roman-77"/>
      <use x="191.064453125" xlink:href="#BitstreamVeraSans-Roman-69"/>
      <use x="218.84765625" xlink:href="#BitstreamVeraSans-Roman-72"/>
      <use x="259.9296875" xlink:href="#BitstreamVeraSans-Roman-65"/>
     </g>
    </g>
    <g id="line2d_30">
     <path d="M 89.28 83.19825 
L 109.44 83.19825 
" style="fill:none;stroke:#0000ff;stroke-linecap:square;"/>
    </g>
    <g id="line2d_31"/>
    <g id="text_18">
     <!-- V-wire -->
     <defs>
      <path d="M 28.609375 0 
L 0.78125 72.90625 
L 11.078125 72.90625 
L 34.1875 11.53125 
L 57.328125 72.90625 
L 67.578125 72.90625 
L 39.796875 0 
z
" id="BitstreamVeraSans-Roman-56"/>
     </defs>
     <g transform="translate(125.28 88.23825)scale(0.144 -0.144)">
      <use xlink:href="#BitstreamVeraSans-Roman-56"/>
      <use x="68.330078125" xlink:href="#BitstreamVeraSans-Roman-2d"/>
      <use x="104.4140625" xlink:href="#BitstreamVeraSans-Roman-77"/>
      <use x="186.201171875" xlink:href="#BitstreamVeraSans-Roman-69"/>
      <use x="213.984375" xlink:href="#BitstreamVeraSans-Roman-72"/>
      <use x="255.06640625" xlink:href="#BitstreamVeraSans-Roman-65"/>
     </g>
    </g>
    <g id="line2d_32">
     <path d="M 89.28 104.33475 
L 109.44 104.33475 
" style="fill:none;stroke:#000000;stroke-linecap:square;"/>
    </g>
    <g id="line2d_33"/>
    <g id="text_19">
     <!-- Y-wire -->
     <defs>
      <path d="M -0.203125 72.90625 
L 10.40625 72.90625 
L 30.609375 42.921875 
L 50.6875 72.90625 
L 61.28125 72.90625 
L 35.5 34.71875 
L 35.5 0 
L 25.59375 0 
L 25.59375 34.71875 
z
" id="BitstreamVeraSans-Roman-59"/>
     </defs>
     <g transform="translate(125.28 109.37475)scale(0.144 -0.144)">
      <use xlink:href="#BitstreamVeraSans-Roman-59"/>
      <use x="60.912109375" xlink:href="#BitstreamVeraSans-Roman-2d"/>
      <use x="96.99609375" xlink:href="#BitstreamVeraSans-Roman-77"/>
      <use x="178.783203125" xlink:href="#BitstreamVeraSans-Roman-69"/>
      <use x="206.56640625" xlink:href="#BitstreamVeraSans-Roman-72"/>
      <use x="247.6484375" xlink:href="#BitstreamVeraSans-Roman-65"/>
     </g>
    </g>
   </g>
  </g>
 </g>
 <defs>
  <clipPath id="p9bc365cefa">
   <rect height="345.6" width="446.4" x="72.0" y="43.2"/>
  </clipPath>
 </defs>
</svg>
